HIERARCHY
ROOT Elbow
{
	OFFSET	0.00	0.00	0.00
	CHANNELS 6 Xposition Yposition Zposition Zrotation Xrotation Yrotation
	JOINT L_Wrist
	{
		OFFSET	 0.208349	 0.000000	 0.000000
		CHANNELS 3 Zrotation Xrotation Yrotation
		JOINT L_index_Proximal
		{
			OFFSET	 0.093499	 0.010637	-0.002084
			CHANNELS 3 Zrotation Xrotation Yrotation
			JOINT L_index_b
			{
				OFFSET	 0.033152	 0.000000	 0.000000
				CHANNELS 3 Zrotation Xrotation Yrotation
				JOINT L_index_c
				{
					OFFSET	 0.018651	 0.000000	 0.000000
					CHANNELS 3 Zrotation Xrotation Yrotation
					End Site
					{
						OFFSET	 0.018651	 0.000000	 0.000000
					}
				}
			}
		}
		JOINT L_middle_Proximal
		{
			OFFSET	 0.090632	-0.006115	-0.003750
			CHANNELS 3 Zrotation Xrotation Yrotation
			JOINT L_middle_b
			{
				OFFSET	 0.037194	 0.000000	 0.000000
				CHANNELS 3 Zrotation Xrotation Yrotation
				JOINT L_middle_c
				{
					OFFSET	 0.021943	 0.000000	 0.000000
					CHANNELS 3 Zrotation Xrotation Yrotation
					End Site
					{
						OFFSET	 0.021943	 0.000000	 0.000000
					}
				}
			}
		}
		JOINT L_pinky_Proximal
		{
			OFFSET	 0.074015	-0.035449	-0.000417
			CHANNELS 3 Zrotation Xrotation Yrotation
			JOINT L_pinky_b
			{
				OFFSET	 0.027285	 0.000000	 0.000000
				CHANNELS 3 Zrotation Xrotation Yrotation
				JOINT L_pinky_c
				{
					OFFSET	 0.015093	 0.000000	 0.000000
					CHANNELS 3 Zrotation Xrotation Yrotation
					End Site
					{
						OFFSET	 0.015093	 0.000000	 0.000000
					}
				}
			}
		}
		JOINT L_ring_Proximal
		{
			OFFSET	 0.082801	-0.021859	-0.003750
			CHANNELS 3 Zrotation Xrotation Yrotation
			JOINT L_ring_b
			{
				OFFSET	 0.034478	 0.000000	 0.000000
				CHANNELS 3 Zrotation Xrotation Yrotation
				JOINT L_ring_c
				{
					OFFSET	 0.021377	 0.000000	 0.000000
					CHANNELS 3 Zrotation Xrotation Yrotation
					End Site
					{
						OFFSET	 0.021377	 0.000000	 0.000000
					}
				}
			}
		}
		JOINT L_thumb_Proximal
		{
			OFFSET	 0.030306	 0.018528	 0.004584
			CHANNELS 3 Zrotation Xrotation Yrotation
			JOINT L_thumb_a
			{
				OFFSET	 0.038520	 0.000000	 0.000000
				CHANNELS 3 Zrotation Xrotation Yrotation
				JOINT L_thumb_b
				{
					OFFSET	 0.026310	 0.000000	 0.000000
					CHANNELS 3 Zrotation Xrotation Yrotation
					End Site
					{
						OFFSET	 0.026310	 0.000000	 0.000000
					}
				}
			}
		}
	}
}
MOTION
Frames:    7
Frame Time: 0.01666667
-0.622547	-0.264480	 0.683812	 50.374210	 35.630810	-176.246500	 20.252860	 2.470990	 14.166270	 13.018030	-8.058254	-53.545480	 1.062888	-0.313844	-32.901440	-2.674706	 0.347327	-14.795100	-3.811807	-9.778256	-15.829390	 3.722894	-0.694438	-21.125180	 1.862168	-0.196792	-12.064140	-29.392810	-19.703860	 6.267740	 0.264451	-0.043310	-18.602540	 0.610755	-0.064054	-11.974130	-19.656910	-11.359070	-2.426841	-0.238835	 0.046031	-21.816930	 1.105977	-0.110118	-11.371410	 72.474910	 41.191140	-60.734830	 5.266112	-0.095122	-2.068269	 0.497572	-0.066215	-15.161660
-0.622455	-0.264660	 0.683817	 50.343240	 35.678070	-176.216000	 20.230470	 2.468669	 14.152700	 13.013920	-8.057021	-53.559230	 1.078943	-0.319057	-32.947250	-2.641923	 0.343906	-14.830820	-3.898926	-9.758446	-15.822510	 3.717567	-0.695946	-21.199330	 1.847659	-0.196220	-12.123260	-29.399460	-19.703630	 6.292205	 0.286217	-0.046922	-18.619590	 0.625836	-0.065662	-11.980740	-19.740540	-11.349760	-2.497781	-0.255805	 0.049451	-21.885580	 1.088300	-0.109143	-11.453030	 72.452850	 41.157560	-60.815720	 5.217059	-0.098471	-2.161213	 0.417322	-0.056392	-15.391320
-0.622319	-0.264738	 0.683727	 50.269600	 35.712150	-176.170200	 20.181550	 2.470479	 14.163320	 13.007380	-8.060786	-53.603680	 1.050516	-0.310659	-32.947890	-2.656968	 0.346083	-14.839780	-4.029343	-9.733135	-15.864680	 3.662061	-0.698003	-21.575700	 1.805035	-0.199634	-12.620720	-29.288970	-19.700330	 6.061136	 0.358411	-0.059099	-18.725550	 0.621300	-0.066202	-12.166700	-20.138680	-11.305130	-3.075517	-0.517077	 0.103150	-22.584200	 0.912254	-0.097711	-12.205310	 72.418920	 41.138340	-60.881380	 5.191420	-0.102194	-2.254004	 0.352620	-0.047959	-15.490470
-0.622030	-0.264650	 0.683717	 50.200700	 35.707180	-176.146900	 20.146960	 2.474312	 14.185730	 13.032080	-8.082608	-53.641510	 1.042634	-0.307767	-32.890540	-2.677008	 0.345849	-14.720200	-4.036952	-9.724652	-15.721250	 3.430651	-0.692423	-22.815700	 1.725351	-0.208901	-13.801600	-29.246520	-19.695350	 5.743180	 0.444098	-0.074611	-19.072590	 0.652151	-0.072393	-12.674750	-20.450270	-11.261940	-3.892384	-0.611700	 0.129846	-23.995020	 0.720817	-0.085262	-13.492630	 72.402170	 41.113450	-60.938350	 5.122200	-0.107472	-2.402439	 0.253370	-0.034852	-15.656870
-0.622041	-0.264507	 0.683652	 50.103680	 35.963340	-176.109700	 20.153080	 2.459044	 14.096350	 13.174790	-8.154703	-53.607480	 1.165780	-0.343093	-32.796820	-2.564527	 0.334854	-14.874380	-4.282436	-9.656418	-15.567000	 3.333747	-0.716892	-24.263810	 1.515122	-0.196905	-14.812330	-29.335640	-19.689210	 5.818279	 0.530527	-0.088529	-18.949740	 0.868906	-0.097136	-12.758360	-20.972290	-11.179710	-4.839928	-0.709052	 0.157008	-24.985110	 0.451434	-0.057258	-14.463990	 72.290940	 41.069840	-61.151510	 4.986181	-0.110699	-2.542361	 0.060407	-0.008337	-15.714410
-0.621780	-0.264249	 0.683475	 49.913760	 36.553720	-176.045600	 20.279790	 2.420555	 13.870870	 13.262270	-8.220123	-53.693370	 1.250799	-0.365136	-32.539850	-2.644409	 0.345666	-14.891070	-4.558075	-9.583173	-15.280220	 2.990836	-0.699234	-26.315640	 1.267681	-0.182448	-16.401540	-28.878520	-19.681580	 5.193250	 0.817258	-0.135139	-18.765040	 1.288705	-0.149893	-13.275300	-21.258210	-11.115080	-6.202221	-0.835047	 0.199073	-26.811650	-0.080251	 0.012118	-16.297850	 72.035860	 41.052910	-61.452880	 4.700401	-0.120022	-2.923427	-0.226189	 0.031979	-16.082560
-0.621716	-0.264346	 0.683230	 49.745120	 37.170100	-175.964100	 20.379050	 2.398503	 13.741760	 13.167700	-8.207792	-53.983730	 1.415668	-0.409840	-32.270460	-2.682733	 0.350188	-14.873250	-5.130046	-9.454604	-15.097280	 2.795863	-0.705871	-28.294570	 0.911167	-0.143004	-17.926970	-28.514510	-19.680260	 4.881483	 0.931059	-0.154789	-18.874520	 1.432153	-0.172512	-13.758570	-21.073240	-11.123570	-6.869865	-0.962151	 0.241578	-28.069170	-0.148107	 0.023246	-17.248850	 71.935390	 40.951630	-61.728790	 4.548095	-0.130695	-3.288570	-0.242038	 0.035237	-16.588970
